<?xml version="1.0" standalone="no"?>
<!DOCTYPE svg PUBLIC "-//W3C//DTD SVG 20010904//EN"
 "http://www.w3.org/TR/2001/REC-SVG-20010904/DTD/svg10.dtd">
<svg version="1.0" xmlns="http://www.w3.org/2000/svg"
 width="960.000000pt" height="960.000000pt" viewBox="0 0 960.000000 960.000000"
 preserveAspectRatio="xMidYMid meet">

<g transform="translate(0.000000,960.000000) scale(0.100000,-0.100000)"
fill="#000000" stroke="none">
<path d="M4337 8783 c-4 -3 -7 -1011 -7 -2240 l0 -2233 775 0 775 0 2 2231 c2
1398 -1 2234 -7 2240 -10 10 -1528 13 -1538 2z m1381 -2052 c2 -125 -1 -166
-10 -173 -7 -4 -195 -8 -418 -8 -223 0 -411 0 -417 0 -10 0 -13 -49 -13 -209
0 -181 2 -210 16 -215 9 -3 189 -6 400 -6 l384 0 -2 -167 -3 -168 -395 -5
-395 -5 0 -260 0 -260 440 -5 440 -5 3 -159 c2 -108 -1 -163 -9 -172 -10 -12
-112 -14 -605 -14 -340 0 -595 4 -598 9 -8 12 -8 1969 -1 1981 4 7 220 9 593
8 l587 -3 3 -164z"/>
<path d="M3690 8639 c-144 -30 -415 -110 -434 -130 -6 -5 -17 -9 -25 -9 -47 0
-457 -233 -511 -290 -3 -3 -25 -21 -50 -40 -79 -60 -230 -212 -299 -301 -37
-47 -84 -121 -105 -163 l-38 -77 -5 -562 c-3 -309 -2 -1056 2 -1660 l7 -1097
782 2 781 3 3 1203 c3 805 1 1207 -6 1214 -7 7 -15 -9 -26 -49 -31 -110 -45
-158 -67 -228 -11 -38 -25 -83 -29 -100 -10 -37 -34 -123 -55 -195 -9 -30 -20
-68 -25 -85 -20 -75 -101 -354 -113 -395 -8 -25 -20 -65 -27 -90 -7 -25 -18
-63 -26 -85 -8 -23 -14 -48 -14 -58 0 -9 -4 -25 -9 -35 -5 -9 -17 -46 -26 -82
-10 -36 -21 -76 -25 -90 -5 -14 -16 -52 -25 -85 -9 -33 -23 -78 -30 -100 -7
-22 -18 -60 -26 -85 -7 -25 -17 -51 -22 -57 -7 -10 -54 -13 -172 -13 -178 0
-174 -2 -193 65 -19 66 -91 317 -103 360 -6 22 -17 60 -25 85 -8 25 -25 86
-39 135 -35 124 -55 195 -66 230 -9 28 -71 245 -105 365 -9 30 -19 66 -24 80
-8 25 -35 118 -50 175 -5 17 -15 53 -23 80 -8 28 -20 70 -27 95 -7 25 -18 63
-25 85 -7 22 -18 60 -25 85 -7 25 -19 64 -27 88 -25 72 -25 72 159 72 90 0
168 -4 174 -8 7 -4 30 -74 53 -157 22 -82 46 -165 52 -184 6 -19 20 -66 29
-105 19 -74 38 -143 65 -236 9 -30 20 -71 25 -90 5 -19 16 -60 25 -90 21 -74
61 -215 90 -325 20 -78 35 -131 61 -222 9 -34 21 -28 27 15 3 20 25 105 47
187 23 83 45 166 50 185 4 19 15 62 25 95 21 77 44 161 55 205 4 19 16 62 25
95 9 33 27 101 40 150 21 82 64 244 85 320 4 17 15 57 24 89 9 33 22 63 28 68
7 4 82 8 166 8 l152 0 0 875 0 875 -32 -1 c-18 -1 -53 -5 -78 -10z"/>
<path d="M6430 6480 l0 -2170 788 2 787 3 3 1635 c2 1239 0 1646 -9 1680 -47
177 -308 465 -595 656 -99 66 -92 62 -228 133 -103 54 -189 91 -316 134 -156
52 -340 97 -401 97 l-29 0 0 -2170z m1424 414 c14 -5 16 -30 16 -169 l0 -163
-27 -7 c-15 -3 -119 -5 -232 -4 l-206 2 -3 -818 c-2 -640 -5 -821 -15 -827
-17 -11 -305 -10 -312 1 -3 5 -5 372 -5 815 0 443 -2 811 -5 818 -4 10 -47 12
-198 10 -105 -2 -211 -1 -234 3 l-43 6 0 164 c0 121 3 165 13 168 18 8 1232 8
1251 1z"/>
<path d="M1802 3858 l3 -193 3264 -3 c1864 -1 3269 2 3274 7 5 5 8 91 8 192
l0 184 -3275 3 -3276 2 2 -192z"/>
<path d="M1247 3533 c-4 -3 -7 -95 -7 -204 l0 -198 33 -6 c17 -3 1760 -4 3872
-3 l3840 3 0 205 0 205 -3866 3 c-2126 1 -3869 -1 -3872 -5z"/>
<path d="M780 2810 l0 -190 4265 -1 c2346 -1 4271 -2 4278 -3 9 -1 13 45 15
192 l2 192 -4280 0 -4280 0 0 -190z"/>
<path d="M2108 2345 c-163 -41 -256 -137 -316 -325 -52 -161 -72 -385 -43
-484 21 -71 89 -139 161 -160 84 -25 231 -30 323 -12 190 37 296 158 364 415
22 81 26 119 27 241 1 140 0 147 -26 197 -31 58 -74 95 -139 119 -62 23 -275
28 -351 9z m229 -272 c-2 -16 -20 -113 -38 -217 -19 -112 -39 -196 -48 -208
-9 -10 -34 -23 -56 -28 -49 -12 -162 -13 -169 -2 -8 14 70 430 84 447 23 27
49 34 144 34 l89 1 -6 -27z"/>
<path d="M3495 2343 c-78 -16 -170 -61 -208 -101 -107 -113 -184 -376 -175
-602 5 -145 35 -198 135 -249 84 -42 263 -51 414 -21 71 15 179 50 179 58 0 7
45 269 75 430 10 59 10 74 0 78 -7 3 -86 4 -176 2 l-163 -3 -18 -95 c-25 -139
-25 -140 17 -140 33 0 35 -2 29 -27 -11 -46 -31 -70 -65 -77 -30 -6 -149 -9
-149 -3 1 31 82 452 89 466 7 11 20 25 31 31 33 17 161 23 259 11 51 -7 95
-10 97 -8 12 12 82 223 76 229 -15 15 -189 38 -281 37 -53 0 -127 -7 -166 -16z"/>
<path d="M5693 2350 c-61 -13 -133 -47 -167 -78 -94 -89 -151 -377 -90 -459
48 -65 104 -87 262 -105 l104 -11 -7 -36 c-4 -20 -9 -38 -12 -41 -13 -13 -237
-11 -313 4 -46 8 -87 13 -91 10 -11 -6 -83 -233 -77 -240 12 -11 169 -35 271
-40 215 -12 368 24 438 103 65 74 109 200 109 311 0 150 -91 220 -314 238
l-78 7 6 35 c3 20 11 39 18 44 13 9 256 3 314 -8 l31 -6 37 115 c20 63 36 119
36 125 0 27 -379 53 -477 32z"/>
<path d="M9135 2350 c-88 -19 -156 -52 -203 -99 -111 -111 -184 -342 -186
-586 -1 -101 1 -114 27 -165 54 -108 137 -144 332 -144 94 0 146 5 186 17 l56
17 6 57 c4 32 9 90 13 129 l6 72 -53 -15 c-53 -15 -271 -24 -283 -12 -10 9 64
421 80 446 20 32 85 46 174 40 41 -4 89 -9 106 -13 l31 -6 42 112 c23 61 39
115 36 120 -12 19 -84 31 -205 35 -69 2 -143 0 -165 -5z"/>
<path d="M720 2330 c-44 -5 -45 -5 -20 -19 23 -13 24 -15 5 -21 -16 -6 -12 -8
17 -12 34 -4 38 -2 44 25 3 16 4 29 2 30 -1 2 -23 0 -48 -3z"/>
<path d="M826 2323 c-15 -51 -136 -795 -130 -805 4 -5 2 -13 -3 -17 -6 -3 -13
-26 -16 -51 l-5 -45 11 37 c15 44 27 59 27 30 0 -11 3 -29 6 -39 4 -13 3 -14
-4 -5 -7 11 -10 11 -15 -2 -4 -9 -2 -16 3 -16 6 0 10 -5 10 -11 0 -5 -4 -7
-10 -4 -5 3 -10 2 -10 -3 0 -8 538 -27 546 -19 5 4 44 214 44 234 0 10 -32 13
-146 13 l-146 0 6 28 c6 29 115 647 119 672 2 13 -21 15 -140 18 -128 2 -142
1 -147 -15z"/>
<path d="M1705 2331 c-56 -6 -58 -7 -25 -13 19 -4 72 -12 117 -18 85 -11 106
-7 133 24 11 14 3 16 -76 14 -49 -1 -116 -4 -149 -7z"/>
<path d="M3050 2330 c-36 -4 -58 -7 -50 -8 9 -1 71 -9 138 -17 122 -15 122
-15 152 7 17 12 30 23 30 25 0 5 -201 0 -270 -7z"/>
<path d="M4340 2330 c-30 -4 -46 -8 -35 -9 16 -1 17 -3 6 -10 -12 -8 -10 -11
10 -16 31 -7 173 -24 176 -21 2 1 6 17 9 34 l7 32 -59 -2 c-33 -1 -84 -4 -114
-8z"/>
<path d="M4560 2333 c0 -5 -36 -219 -81 -476 -44 -258 -79 -470 -77 -472 2 -3
67 -6 143 -7 l140 -3 47 265 c26 146 63 355 82 465 20 110 36 208 36 218 0 15
-14 17 -145 17 -80 0 -145 -3 -145 -7z"/>
<path d="M5295 2333 c-38 -2 -74 -8 -78 -12 -11 -11 16 -16 144 -32 l96 -11
26 26 c15 15 27 29 27 31 0 5 -90 4 -215 -2z"/>
<path d="M6779 2333 c-13 -3 -21 -29 -34 -101 -9 -53 -19 -104 -21 -113 -4
-14 11 -17 98 -23 56 -4 103 -8 104 -9 1 -1 -22 -141 -52 -312 -30 -170 -57
-328 -60 -351 l-6 -41 138 -6 c76 -4 141 -4 145 0 3 5 32 157 63 338 32 182
60 340 63 352 5 21 11 23 111 25 l106 3 17 100 c10 55 21 110 24 123 l5 22
-342 -1 c-189 -1 -350 -3 -359 -6z"/>
<path d="M8015 2330 c-5 -9 -165 -921 -165 -943 0 -16 13 -17 142 -15 l143 3
82 460 c45 253 82 470 82 483 l1 23 -140 -2 c-78 -1 -143 -5 -145 -9z"/>
<path d="M8755 2330 c-91 -6 -79 -13 52 -30 74 -10 86 -9 108 7 13 10 25 21
25 26 0 8 -56 7 -185 -3z"/>
<path d="M6665 2320 c4 -6 11 -8 16 -5 5 4 9 -1 9 -9 0 -8 -8 -17 -17 -19 -14
-4 -12 -5 5 -6 17 -1 22 4 22 24 0 19 -5 25 -21 25 -11 0 -17 -5 -14 -10z"/>
<path d="M7738 2323 c23 -5 30 -19 11 -25 -7 -2 34 -9 91 -16 57 -7 104 -11
106 -10 1 2 5 15 9 31 l7 27 -123 -1 c-68 -1 -114 -4 -101 -6z"/>
<path d="M713 2183 c-7 -2 -13 -12 -13 -20 0 -9 6 -13 15 -9 8 3 15 3 15 0 0
-2 -10 -9 -22 -14 -22 -8 -22 -9 5 -9 24 -1 27 3 27 29 0 30 -4 33 -27 23z"/>
<path d="M1670 2180 c-13 -9 -13 -10 0 -10 13 0 13 -2 1 -9 -16 -10 -3 -15 70
-25 31 -4 38 -1 48 20 6 14 11 27 11 29 0 9 -115 5 -130 -5z"/>
<path d="M3000 2176 c0 -8 -6 -16 -12 -19 -7 -2 19 -8 57 -12 39 -4 78 -9 88
-11 11 -2 23 8 32 27 l16 29 -91 0 c-71 0 -90 -3 -90 -14z"/>
<path d="M4305 2180 c-19 -8 -19 -9 -1 -9 14 -1 16 -4 7 -15 -9 -11 1 -15 61
-20 40 -4 81 -9 91 -12 14 -4 17 1 17 30 l0 36 -77 -1 c-43 0 -87 -4 -98 -9z"/>
<path d="M5240 2175 c0 -10 -10 -15 -27 -15 -50 0 -17 -9 76 -21 99 -13 110
-9 111 34 0 15 -10 17 -80 17 -64 0 -80 -3 -80 -15z"/>
<path d="M7804 2183 c-64 -3 -71 -6 -67 -22 4 -15 21 -20 91 -29 48 -5 90 -8
94 -5 5 2 8 17 8 34 0 25 -3 29 -27 27 -16 -1 -60 -4 -99 -5z"/>
<path d="M8705 2180 c-14 -6 -16 -9 -5 -10 8 -2 20 -2 25 -1 6 1 2 -5 -8 -13
-16 -13 -14 -14 23 -18 37 -3 43 -1 56 24 l15 28 -43 -1 c-24 0 -52 -4 -63 -9z"/>
<path d="M6658 2155 c-3 -14 -1 -25 3 -25 5 0 9 11 9 25 0 14 -2 25 -4 25 -2
0 -6 -11 -8 -25z"/>
<path d="M690 2025 c12 -15 30 -12 30 6 0 5 -10 9 -21 9 -18 0 -19 -2 -9 -15z"/>
<path d="M1678 2028 l23 -12 -23 -12 c-22 -13 -21 -13 15 -14 20 0 37 4 37 9
0 5 3 16 6 25 5 13 -2 16 -37 15 -40 0 -42 -1 -21 -11z"/>
<path d="M2988 2033 c20 -8 14 -23 -10 -24 -25 -1 18 -12 84 -22 33 -5 37 -3
47 24 l10 29 -72 -1 c-40 0 -66 -3 -59 -6z"/>
<path d="M4298 2031 c7 -4 12 -14 10 -22 -2 -10 15 -16 65 -23 37 -5 69 -7 71
-5 3 2 7 16 11 32 l7 27 -88 0 c-51 0 -83 -4 -76 -9z"/>
<path d="M5236 2023 c15 -16 15 -17 -2 -24 -18 -7 -18 -8 1 -8 11 -1 44 -4 73
-7 l52 -7 0 32 0 31 -71 0 c-66 0 -69 -1 -53 -17z"/>
<path d="M6668 2033 c20 -8 14 -23 -10 -24 -32 -2 44 -16 130 -24 61 -6 72 -5
72 8 0 8 3 22 6 31 5 14 -7 16 -102 15 -60 0 -103 -3 -96 -6z"/>
<path d="M7760 2030 c-19 -4 -26 -8 -15 -9 19 -2 19 -2 2 -15 -16 -12 -8 -15
63 -21 45 -4 83 -6 85 -4 2 2 6 16 10 32 l7 27 -58 -1 c-33 -1 -75 -5 -94 -9z"/>
<path d="M8705 2026 c21 -10 26 -15 15 -19 -8 -3 -22 -8 -30 -11 -8 -3 -1 -4
15 -3 22 1 31 8 33 22 2 17 -3 21 -30 23 l-33 1 30 -13z"/>
<path d="M690 1990 c0 -5 5 -10 10 -10 6 0 10 5 10 10 0 6 -4 10 -10 10 -5 0
-10 -4 -10 -10z"/>
<path d="M677 1870 c-3 -11 -1 -20 4 -20 5 0 9 9 9 20 0 11 -2 20 -4 20 -2 0
-6 -9 -9 -20z"/>
<path d="M1670 1879 c25 -10 25 -11 5 -26 l-20 -15 20 4 c12 2 21 13 23 26 3
18 -1 22 -25 21 l-28 0 25 -10z"/>
<path d="M2985 1880 c17 -4 24 -8 18 -9 -7 0 -13 -7 -13 -15 0 -8 14 -16 38
-18 20 -3 38 -5 39 -4 1 1 4 13 8 29 l7 27 -63 -1 c-51 -1 -58 -3 -34 -9z"/>
<path d="M4300 1880 c-13 -8 -12 -10 4 -10 14 0 16 -3 7 -14 -9 -11 -1 -14 45
-20 64 -7 74 -4 74 30 0 23 -3 24 -57 24 -32 0 -65 -5 -73 -10z"/>
<path d="M5220 1885 c0 -3 10 -10 23 -15 22 -9 22 -9 -3 -10 -23 -1 -23 -2 -5
-9 11 -5 45 -11 76 -15 l56 -7 -5 30 -4 31 -69 0 c-38 0 -69 -2 -69 -5z"/>
<path d="M6680 1881 c0 -5 10 -12 23 -14 15 -3 11 -5 -12 -6 -52 -2 -34 -9 53
-22 83 -12 95 -8 96 34 0 15 -10 17 -80 17 -44 0 -80 -4 -80 -9z"/>
<path d="M7751 1881 c-7 -5 -11 -13 -7 -19 3 -6 0 -12 -6 -15 -7 -2 17 -7 54
-11 77 -9 88 -5 88 30 0 23 -3 24 -57 24 -32 0 -64 -4 -72 -9z"/>
<path d="M8691 1854 c0 -11 3 -14 6 -6 3 7 2 16 -1 19 -3 4 -6 -2 -5 -13z"/>
<path d="M1653 1733 c13 -3 17 -11 14 -24 -3 -10 -1 -19 4 -19 5 0 9 11 9 25
0 20 -5 25 -22 24 -19 -1 -20 -2 -5 -6z"/>
<path d="M2985 1731 c20 -4 26 -9 17 -14 -7 -5 -10 -13 -7 -18 8 -12 55 -12
55 0 0 5 3 16 6 25 5 13 -2 16 -47 15 -43 -1 -48 -3 -24 -8z"/>
<path d="M4298 1733 c24 -5 30 -28 10 -36 -7 -3 -3 -6 8 -6 12 -1 35 -4 51 -7
28 -5 31 -3 35 25 l5 31 -66 -1 c-36 -1 -56 -4 -43 -6z"/>
<path d="M5215 1731 c-18 -7 -17 -9 10 -14 30 -7 151 -21 255 -31 l55 -6 -59
30 c-53 27 -68 30 -150 29 -50 0 -100 -4 -111 -8z"/>
<path d="M6675 1731 c37 -6 38 -7 15 -14 -24 -8 -24 -8 -5 -16 11 -4 44 -11
73 -15 l52 -7 0 31 0 30 -87 -1 c-64 -1 -77 -4 -48 -8z"/>
<path d="M7744 1727 c18 -13 18 -14 0 -22 -15 -7 -11 -10 21 -16 75 -15 85
-12 85 21 l0 30 -62 0 c-54 0 -60 -2 -44 -13z"/>
<path d="M4338 1592 c-39 -3 -51 -17 -20 -25 14 -3 13 -6 -8 -15 l-25 -11 27
0 c14 -1 33 -4 41 -7 11 -4 17 4 22 26 4 17 5 32 3 33 -1 1 -20 1 -40 -1z"/>
<path d="M1660 1580 c0 -5 5 -10 10 -10 6 0 10 5 10 10 0 6 -4 10 -10 10 -5 0
-10 -4 -10 -10z"/>
<path d="M2983 1583 c20 -5 23 -23 5 -24 -20 -1 25 -18 50 -18 17 -1 22 5 22
24 0 23 -3 25 -47 24 -27 -1 -40 -3 -30 -6z"/>
<path d="M5238 1583 c12 -2 20 -9 17 -14 -4 -5 0 -10 7 -10 7 -1 0 -5 -17 -9
-30 -8 -30 -8 8 -9 20 0 37 3 37 8 0 5 3 16 6 25 5 13 -2 16 -37 15 -24 -1
-34 -4 -21 -6z"/>
<path d="M6685 1575 l30 -13 -30 -1 c-42 -2 -14 -17 46 -24 46 -6 47 -6 51 23
l5 30 -66 0 c-64 -1 -65 -1 -36 -15z"/>
<path d="M7748 1579 c17 -5 32 -14 32 -19 0 -6 -3 -9 -7 -9 -5 1 -19 0 -33 -1
-16 -1 -8 -5 24 -12 55 -10 51 -12 60 25 l6 27 -57 -1 c-53 -1 -55 -2 -25 -10z"/>
<path d="M8675 1565 c0 -14 3 -25 8 -25 4 0 7 11 7 25 0 14 -3 25 -7 25 -5 0
-8 -11 -8 -25z"/>
<path d="M1665 1550 c-3 -5 1 -10 9 -10 9 0 16 5 16 10 0 6 -4 10 -9 10 -6 0
-13 -4 -16 -10z"/>
<path d="M3030 1440 c-44 -4 -57 -7 -40 -11 l25 -6 -25 -3 c-14 -1 13 -8 60
-14 47 -6 87 -10 89 -9 1 1 -8 12 -20 25 -22 21 -31 23 -89 18z"/>
<path d="M1675 1430 c18 -8 18 -9 -5 -10 -24 -2 -23 -3 5 -10 17 -4 43 -8 59
-9 28 -1 29 -1 11 19 -12 13 -30 20 -54 19 -29 0 -32 -2 -16 -9z"/>
<path d="M4310 1420 l23 -20 -24 -1 -24 -1 25 -7 c32 -10 40 -5 40 25 0 20 -5
24 -32 24 l-31 0 23 -20z"/>
<path d="M5235 1426 c-22 -24 -26 -36 -12 -36 8 0 17 10 20 22 7 27 5 30 -8
14z"/>
<path d="M6670 1430 c14 -4 21 -9 15 -10 -5 -1 1 -6 15 -10 25 -8 25 -8 -5
-10 -28 -2 -27 -3 10 -10 22 -4 41 -7 42 -6 1 0 4 13 8 29 l7 27 -58 -1 c-45
-1 -53 -3 -34 -9z"/>
<path d="M7750 1430 c29 -6 31 -8 10 -9 -23 -2 -24 -3 -5 -11 18 -8 18 -9 -5
-10 -25 -2 -25 -2 4 -12 31 -11 46 0 46 35 0 14 -8 17 -42 16 l-43 -2 35 -7z"/>
<path d="M8703 1433 c22 -3 26 -7 18 -17 -8 -10 -4 -13 18 -14 28 -1 29 0 13
19 -10 12 -28 18 -47 18 l-30 -2 28 -4z"/>
<path d="M8178 1165 c-4 -21 -1 -25 18 -25 23 0 54 23 54 41 0 5 -15 9 -34 9
-28 0 -34 -4 -38 -25z"/>
<path d="M600 1143 c0 -5 -13 -81 -29 -170 l-28 -163 99 0 c149 0 168 15 194
165 19 107 18 131 -6 155 -17 17 -33 20 -125 20 -58 0 -105 -3 -105 -7z m176
-68 c10 -24 -17 -174 -33 -191 -15 -14 -123 -20 -136 -7 -4 3 -1 13 7 22 7 9
19 52 26 96 7 44 15 83 17 88 2 4 29 7 59 7 40 0 56 -4 60 -15z"/>
<path d="M2790 1120 l0 -30 60 0 c62 0 71 -5 44 -24 -10 -8 -23 -50 -35 -117
-25 -139 -25 -139 11 -139 33 0 32 -2 50 110 6 36 15 89 21 118 l10 52 49 0
c47 0 59 11 60 53 0 4 -61 7 -135 7 l-135 0 0 -30z"/>
<path d="M4087 988 c-15 -90 -27 -166 -27 -170 0 -5 44 -8 98 -8 152 0 164 12
197 194 16 86 16 90 -3 115 -18 25 -24 26 -128 29 l-109 3 -28 -163z m208 92
c7 -12 -24 -188 -35 -195 -14 -9 -119 -18 -136 -11 -15 6 -15 8 -1 24 11 13
47 155 47 188 0 9 119 3 125 -6z"/>
<path d="M6362 1137 c-35 -20 -53 -54 -55 -102 -3 -65 16 -79 111 -85 69 -4
77 -7 80 -26 5 -35 -23 -47 -115 -49 -79 -2 -87 -4 -99 -26 -7 -13 -13 -27
-14 -31 0 -5 50 -8 111 -8 l111 0 32 33 c41 40 54 98 31 133 -21 33 -54 44
-126 44 -55 0 -59 2 -59 23 0 38 19 47 102 47 76 0 78 1 93 30 l16 30 -98 0
c-59 -1 -107 -6 -121 -13z"/>
<path d="M1118 1094 c-29 -15 -38 -39 -57 -148 -23 -127 -15 -136 112 -136
135 0 140 6 168 184 12 77 12 80 -10 98 -30 23 -171 25 -213 2z m162 -65 c0
-16 -23 -143 -27 -148 -6 -9 -109 -11 -122 -2 -11 7 -12 20 -1 77 7 38 15 72
17 77 7 12 133 8 133 -4z"/>
<path d="M1624 1098 c-30 -14 -41 -44 -61 -153 -16 -91 -16 -95 2 -115 16 -17
30 -20 111 -20 129 0 138 8 161 154 l17 108 -23 19 c-19 15 -39 19 -105 18
-44 0 -91 -5 -102 -11z m156 -76 c0 -35 -22 -137 -31 -143 -10 -6 -119 -2
-126 5 -4 4 13 118 22 144 3 8 26 12 70 12 56 0 65 -2 65 -18z"/>
<path d="M2095 1098 c-2 -7 -14 -67 -25 -133 -12 -66 -23 -128 -26 -137 -4
-15 1 -18 29 -18 l35 0 17 98 c24 138 21 132 65 132 27 0 39 5 43 18 2 9 8 25
12 35 6 14 2 17 -21 17 -15 0 -36 -7 -46 -17 -17 -15 -18 -15 -18 0 0 20 -58
24 -65 5z"/>
<path d="M3305 1098 c-34 -20 -42 -38 -60 -145 -17 -99 -17 -104 0 -123 15
-17 31 -20 107 -20 49 0 98 5 110 11 27 15 43 59 59 163 13 88 12 89 -10 107
-19 15 -40 19 -105 19 -44 0 -90 -6 -101 -12z m155 -76 c0 -37 -24 -137 -34
-144 -14 -9 -100 -8 -116 2 -9 5 -9 23 0 71 16 93 12 89 85 89 56 0 65 -2 65
-18z"/>
<path d="M4643 1100 c-35 -14 -50 -48 -67 -150 -14 -84 -14 -97 -1 -117 14
-21 23 -23 110 -23 124 0 139 12 160 125 30 158 19 175 -105 174 -41 0 -85 -4
-97 -9z m147 -84 c0 -44 -20 -130 -32 -138 -13 -8 -114 -5 -123 3 -4 5 11 117
20 147 3 8 26 12 70 12 62 0 65 -1 65 -24z"/>
<path d="M5125 1088 c-21 -19 -29 -41 -44 -123 -28 -145 -25 -149 105 -153 96
-3 101 -2 124 23 18 19 28 49 41 121 9 53 14 105 11 116 -7 28 -42 38 -132 38
-68 0 -83 -3 -105 -22z m167 -53 c9 -9 -19 -147 -31 -154 -9 -6 -95 -7 -122
-2 -6 1 -4 21 12 109 l10 52 63 0 c34 0 65 -2 68 -5z"/>
<path d="M5606 1093 c-6 -21 -46 -255 -46 -272 0 -6 13 -11 29 -11 34 0 34 0
55 123 8 48 18 92 21 97 3 6 21 10 39 10 25 0 35 6 44 25 7 14 12 30 12 35 0
15 -38 12 -65 -6 -23 -15 -25 -15 -25 0 0 23 -57 22 -64 -1z"/>
<path d="M6855 1100 c-36 -14 -46 -36 -64 -139 -26 -143 -24 -145 106 -149
l102 -3 16 30 c8 17 15 32 15 34 0 3 -37 3 -82 1 -46 -3 -88 -1 -95 3 -8 6 -9
23 -2 63 18 108 12 100 83 100 70 0 76 -3 69 -31 -4 -15 -14 -19 -44 -19 -33
0 -41 -5 -54 -30 -8 -16 -15 -30 -15 -32 0 -2 37 -3 82 -3 l83 0 11 64 c19
105 4 121 -111 120 -44 0 -89 -4 -100 -9z"/>
<path d="M7316 1093 c-6 -21 -46 -255 -46 -272 0 -6 13 -11 29 -11 34 0 33 -3
56 133 l17 97 38 0 c30 0 39 5 48 25 7 14 12 30 12 35 0 15 -38 12 -65 -6 -23
-15 -25 -15 -25 0 0 23 -57 22 -64 -1z"/>
<path d="M7678 1105 c-2 -3 4 -67 13 -142 10 -76 18 -141 19 -145 0 -11 110
-10 110 1 0 5 29 69 65 143 36 74 65 138 65 141 0 4 -16 7 -35 7 -32 0 -37 -4
-54 -42 -11 -24 -33 -74 -51 -113 l-33 -70 -7 35 c-5 19 -11 70 -15 113 l-7
77 -32 0 c-18 0 -35 -2 -38 -5z"/>
<path d="M8166 1093 c-6 -21 -46 -255 -46 -272 0 -19 58 -13 64 7 6 20 46 254
46 271 0 19 -58 13 -64 -6z"/>
<path d="M8484 1087 c-23 -20 -30 -39 -45 -127 -17 -93 -17 -106 -4 -127 14
-21 22 -23 110 -23 88 0 95 2 97 20 0 11 1 25 2 32 1 8 -19 12 -65 11 -36 -1
-71 2 -77 5 -7 5 -7 24 -1 62 19 108 11 100 88 100 63 0 69 2 79 25 7 14 12
30 12 35 0 6 -38 10 -84 10 -74 0 -88 -3 -112 -23z"/>
<path d="M8936 1087 c-25 -25 -42 -88 -53 -191 -8 -79 1 -86 127 -86 94 0 97
1 108 25 7 14 12 29 12 34 0 4 -39 7 -87 7 l-88 -1 3 57 c1 31 6 68 12 82 9
24 14 26 75 26 63 0 66 -1 63 -22 -2 -19 -10 -24 -46 -26 -35 -3 -45 -8 -57
-33 -9 -16 -14 -29 -13 -30 16 -6 92 -8 125 -4 l41 6 11 65 c12 68 6 96 -25
108 -8 3 -54 6 -100 6 -76 0 -87 -3 -108 -23z"/>
</g>
</svg>
