<?xml version="1.0" standalone="no"?>
<!DOCTYPE svg PUBLIC "-//W3C//DTD SVG 20010904//EN"
 "http://www.w3.org/TR/2001/REC-SVG-20010904/DTD/svg10.dtd">
<svg version="1.0" xmlns="http://www.w3.org/2000/svg"
 width="960.000000pt" height="960.000000pt" viewBox="0 0 960.000000 960.000000"
 preserveAspectRatio="xMidYMid meet">

<g transform="translate(0.000000,960.000000) scale(0.100000,-0.100000)"
fill="#000000" stroke="none">
<path d="M4320 9585 c-525 -54 -1038 -194 -1524 -417 -900 -412 -1678 -1127
-2165 -1988 -162 -289 -277 -547 -398 -900 -45 -132 -126 -458 -154 -619 -106
-608 -100 -1210 17 -1798 244 -1226 965 -2314 2004 -3024 241 -165 498 -309
745 -418 66 -29 136 -59 155 -68 78 -34 267 -100 450 -156 227 -69 529 -131
793 -162 578 -67 1153 -30 1717 110 222 56 291 76 470 140 270 96 653 279 865
413 22 14 65 41 95 60 117 74 307 209 385 273 11 9 74 61 140 116 481 398 932
980 1215 1568 232 481 365 934 446 1515 25 179 31 835 10 1045 -143 1392 -857
2627 -1989 3439 -472 338 -1050 608 -1592 742 -77 19 -156 39 -175 44 -70 18
-398 69 -544 85 -185 19 -779 19 -966 0z m-2140 -3405 c11 -6 20 -21 20 -34 0
-13 -20 -111 -45 -217 -25 -107 -70 -304 -100 -439 -30 -135 -70 -310 -89
-390 -53 -229 -104 -442 -142 -607 -21 -90 -42 -157 -51 -165 -22 -18 -1357
-25 -1379 -7 -8 6 -14 23 -14 38 0 25 127 276 159 314 12 15 52 17 396 17 351
0 383 1 398 18 8 9 25 64 37 122 25 120 98 451 165 745 25 110 59 263 75 340
43 196 57 248 76 262 21 16 466 18 494 3z m3083 0 c678 0 797 -2 797 -14 0 -8
-23 -35 -51 -60 l-51 -46 -252 0 c-219 0 -255 -2 -286 -18 -19 -9 -36 -25 -38
-34 -3 -17 13 -18 236 -18 270 0 277 -2 214 -63 l-37 -36 -276 -3 c-256 -3
-279 -4 -298 -22 -48 -44 -37 -46 224 -46 286 0 285 1 186 -93 l-60 -57 -289
0 c-220 0 -292 -3 -300 -12 -5 -7 -31 -98 -56 -203 -25 -104 -62 -251 -81
-325 -19 -74 -72 -281 -117 -459 -54 -214 -88 -331 -100 -343 -16 -16 -40 -18
-245 -18 -126 0 -234 4 -242 9 -10 6 -12 21 -8 52 5 39 206 861 285 1166 23
89 27 115 17 123 -8 7 -144 10 -386 10 -206 0 -380 0 -386 0 -29 0 -8 58 82
214 52 91 105 187 119 213 26 53 50 78 81 86 11 3 133 4 270 2 138 -2 609 -4
1048 -5z m-1648 -9 c9 -16 -223 -440 -241 -441 -6 0 -14 22 -16 50 -6 64 -40
102 -115 130 -109 41 -223 17 -304 -64 -55 -54 -74 -100 -73 -176 1 -87 32
-150 136 -274 93 -112 350 -346 379 -346 25 0 41 38 76 171 14 54 31 100 37
102 22 8 337 -88 347 -106 24 -43 -31 -221 -124 -399 l-61 -116 53 -64 c224
-272 244 -298 231 -313 -10 -12 -49 -15 -227 -15 l-214 0 -59 55 -58 56 -90
-30 c-180 -59 -289 -76 -482 -75 -203 1 -280 17 -417 84 -170 83 -251 199
-261 370 -6 108 16 189 83 302 60 103 227 270 343 344 2 2 -16 31 -41 66 -130
184 -163 346 -114 561 14 59 31 114 37 122 11 13 96 15 591 15 350 0 580 -4
584 -9z m3725 -1112 c123 -20 188 -64 210 -144 22 -79 -16 -165 -95 -210 -50
-30 -53 -40 -26 -87 19 -33 41 -163 41 -244 0 -48 -8 -54 -80 -54 -29 0 -52 6
-59 14 -10 12 -30 148 -31 207 0 9 -12 28 -26 43 -21 20 -37 26 -70 26 -39 0
-43 -2 -53 -32 -5 -18 -17 -76 -26 -128 -20 -114 -33 -130 -106 -130 -36 0
-51 4 -56 16 -6 17 0 56 72 434 47 246 57 273 100 291 29 11 129 11 205 -2z
m-1632 -11 c20 -20 15 -85 -8 -108 -18 -18 -33 -20 -139 -20 -83 0 -122 -4
-129 -12 -11 -14 -35 -129 -27 -136 2 -3 44 -4 93 -3 120 3 142 -4 142 -39 0
-15 -5 -41 -11 -59 l-11 -31 -111 0 c-62 0 -117 -4 -124 -8 -16 -10 -45 -135
-37 -156 5 -13 26 -16 129 -16 141 0 149 -4 139 -70 -11 -70 -11 -70 -233 -70
-160 0 -201 3 -210 14 -10 12 -6 49 18 173 16 87 43 239 61 338 25 146 35 183
52 198 18 15 44 17 207 17 132 0 191 -4 199 -12z m243 -4 c8 -9 30 -61 49
-117 19 -55 40 -102 45 -104 6 -2 35 38 65 88 92 152 90 150 174 147 56 -2 71
-6 74 -19 2 -9 -51 -88 -117 -175 -67 -86 -121 -164 -121 -172 0 -9 28 -89 62
-179 47 -123 59 -166 50 -175 -6 -6 -35 -13 -65 -16 -67 -5 -71 0 -118 137
-21 62 -42 107 -50 109 -8 1 -42 -45 -87 -118 -80 -131 -83 -133 -172 -128
-43 2 -56 7 -58 20 -2 10 48 88 119 185 l122 167 -30 90 c-17 50 -43 126 -59
168 -23 64 -25 80 -14 92 18 22 113 22 131 0z m852 -3 c131 -41 172 -191 88
-323 -55 -86 -138 -128 -254 -128 -43 0 -80 -5 -90 -13 -12 -8 -23 -45 -35
-121 -14 -80 -23 -112 -37 -122 -25 -19 -109 -18 -124 0 -10 12 -2 70 39 278
28 145 53 277 56 293 26 153 30 157 199 151 66 -2 137 -9 158 -15z m1337 4
c18 -22 4 -102 -20 -115 -10 -5 -70 -10 -133 -10 -80 0 -118 -4 -125 -12 -11
-15 -37 -126 -31 -133 3 -2 52 -5 109 -6 57 -1 110 -3 117 -6 16 -6 17 -49 2
-92 l-11 -31 -113 0 c-83 0 -117 -4 -127 -14 -19 -18 -42 -146 -29 -159 5 -5
60 -9 123 -8 140 2 154 -4 139 -69 -5 -24 -18 -50 -27 -57 -27 -20 -397 -18
-414 1 -9 12 -7 38 9 123 11 59 36 200 56 313 20 113 38 217 41 232 10 53 31
58 235 58 153 0 189 -3 199 -15z m488 4 c42 -14 45 -31 19 -87 -20 -42 -26
-47 -52 -45 -130 10 -154 8 -182 -13 -31 -23 -40 -60 -20 -85 6 -8 50 -41 95
-71 108 -72 137 -113 136 -193 0 -99 -50 -171 -149 -217 -42 -19 -66 -23 -150
-23 -166 1 -212 29 -177 109 11 24 25 46 31 50 6 4 34 0 63 -9 103 -30 192
-13 217 42 19 42 -12 82 -99 127 -193 102 -193 318 0 405 35 16 66 21 141 21
53 0 110 -5 127 -11z m562 -4 c35 -18 36 -28 10 -89 l-19 -46 -43 7 c-106 18
-171 5 -193 -37 -22 -42 -11 -57 94 -129 110 -75 134 -106 139 -182 3 -46 -1
-68 -21 -112 -29 -64 -71 -99 -153 -128 -108 -38 -314 -10 -314 42 0 32 31 98
48 103 10 3 39 -1 66 -9 117 -36 216 -2 216 72 0 25 -41 63 -110 103 -101 59
-140 113 -140 196 0 88 54 164 145 205 53 24 231 27 275 4z"/>
<path d="M2728 5056 c-130 -103 -168 -205 -109 -298 53 -83 128 -120 241 -121
104 0 280 55 280 87 0 6 -59 79 -131 161 -72 83 -143 165 -156 183 -15 18 -34
32 -47 32 -11 0 -46 -20 -78 -44z"/>
<path d="M7230 4904 c-14 -16 -41 -144 -34 -156 3 -5 24 -8 47 -8 86 0 157 69
135 132 -6 16 -21 34 -35 39 -38 14 -99 11 -113 -7z"/>
<path d="M6615 4909 c-12 -18 -34 -122 -35 -156 0 -32 1 -33 40 -33 77 0 150
53 150 110 0 29 -26 76 -45 84 -27 10 -103 7 -110 -5z"/>
</g>
</svg>
