<?xml version="1.0" standalone="no"?>
<!DOCTYPE svg PUBLIC "-//W3C//DTD SVG 20010904//EN"
 "http://www.w3.org/TR/2001/REC-SVG-20010904/DTD/svg10.dtd">
<svg version="1.0" xmlns="http://www.w3.org/2000/svg"
 width="1024.000000pt" height="1024.000000pt" viewBox="0 0 1024.000000 1024.000000"
 preserveAspectRatio="xMidYMid meet">

<g transform="translate(0.000000,1024.000000) scale(0.100000,-0.100000)"
fill="#000000" stroke="none">
<path d="M5845 7369 c-199 -170 -374 -254 -655 -315 -124 -27 -556 -27 -680 0
-228 49 -457 160 -656 318 -34 26 -66 48 -72 48 -5 0 -31 -10 -58 -21 -26 -12
-95 -35 -153 -51 -115 -31 -134 -32 -900 -58 -173 -6 -316 -12 -318 -14 -2 -2
1 -113 6 -247 6 -134 15 -460 21 -724 22 -1033 45 -1839 56 -2002 l6 -83 2407
0 2408 0 2 183 c2 205 26 1334 40 1948 6 222 12 522 15 667 l5 262 -32 0
c-119 0 -750 22 -879 30 -176 12 -314 42 -414 90 -34 17 -65 30 -70 30 -5 -1
-40 -28 -79 -61z m-2051 -182 c73 -59 189 -133 285 -181 206 -104 420 -154
696 -163 450 -15 839 101 1117 332 l52 43 37 -19 c32 -16 174 -59 196 -59 21
0 -168 -163 -262 -225 -280 -185 -550 -271 -923 -295 -239 -16 -420 2 -676 66
-295 73 -548 205 -739 385 l-89 83 90 18 c50 10 107 24 129 32 21 7 40 14 42
15 2 0 22 -14 45 -32z m-449 -124 c68 -78 176 -181 250 -239 113 -89 304 -187
465 -239 47 -15 110 -35 140 -45 233 -76 658 -110 958 -76 168 19 388 70 522
121 266 101 577 332 675 500 l28 48 151 -8 c83 -4 251 -10 374 -14 122 -4 225
-11 228 -14 4 -4 1 -107 -5 -229 -6 -123 -18 -599 -26 -1058 -8 -459 -18 -967
-22 -1127 l-6 -293 -631 -1 c-921 -1 -3278 -1 -3582 0 l-261 1 -11 368 c-7
202 -17 628 -22 947 -6 319 -15 740 -20 935 -6 195 -10 382 -10 415 l0 60 248
3 c199 2 452 13 483 21 3 0 36 -34 74 -76z"/>
<path d="M3325 6557 c-67 -45 -140 -95 -163 -112 l-42 -30 3 -895 c2 -1003 -4
-928 75 -966 74 -36 223 -9 252 46 8 15 11 122 10 361 l0 339 305 0 305 0 0
-327 c0 -308 1 -330 20 -360 56 -93 229 -98 294 -10 21 28 21 34 21 900 0 849
-1 873 -20 904 -12 21 -34 38 -60 47 -99 36 -170 28 -220 -24 l-30 -31 -3
-390 -3 -389 -304 0 -305 0 0 510 c0 281 -3 510 -7 510 -5 0 -62 -37 -128 -83z"/>
<path d="M6280 5641 c0 -1103 -3 -1053 62 -1087 64 -34 213 -18 254 27 18 20
19 54 19 843 0 451 -1 860 -3 908 l-3 87 -67 43 c-37 23 -98 66 -137 94 -38
28 -82 59 -97 68 l-28 18 0 -1001z"/>
<path d="M5227 6373 c-3 -5 -26 -94 -52 -198 -42 -168 -147 -521 -207 -690
-11 -33 -56 -163 -98 -290 -43 -126 -101 -295 -128 -375 -70 -203 -70 -204
-34 -239 38 -38 82 -46 199 -35 l94 9 30 70 c16 39 54 138 85 220 30 83 69
186 85 230 17 44 47 128 68 187 l37 108 44 -133 c123 -370 237 -656 273 -686
13 -10 43 -12 125 -9 92 4 114 8 140 27 18 12 32 30 32 40 0 17 -95 289 -140
401 -12 30 -39 100 -60 155 -20 55 -99 258 -174 450 -76 193 -157 404 -180
470 -79 223 -123 314 -139 288z"/>
<path d="M2510 3595 c0 -225 3 -427 6 -447 l7 -38 88 0 89 0 0 203 0 202 105
0 105 0 0 -201 0 -201 198 -7 c108 -4 204 -5 212 -2 16 7 68 94 183 311 41 77
86 160 101 185 l26 45 0 -267 0 -268 90 0 90 0 0 444 0 444 -94 7 c-51 3 -114
4 -139 0 l-47 -7 -42 -92 c-23 -50 -107 -219 -187 -376 -185 -365 -179 -352
-186 -383 -4 -15 -12 -27 -17 -27 -6 0 -7 8 -3 18 4 9 9 208 12 442 l6 425
-100 0 -101 0 -6 -44 c-3 -24 -6 -95 -6 -157 l0 -114 -100 0 -100 0 0 158 0
157 -95 0 -95 0 0 -410z"/>
<path d="M5554 3976 c3 -16 6 -217 6 -447 l0 -419 95 0 95 0 0 203 0 202 95
-3 95 -3 0 -177 c0 -97 3 -187 6 -199 6 -22 11 -23 95 -23 l89 0 0 448 0 447
-95 0 -95 1 0 -158 0 -158 -95 0 -94 0 -3 156 -3 155 -98 2 -99 2 6 -29z"/>
<path d="M6330 3689 l0 -316 -51 -5 c-63 -6 -91 -31 -91 -81 0 -73 39 -134
106 -166 87 -43 180 -17 219 59 16 32 17 70 15 428 l-3 393 -98 2 -97 2 0
-316z"/>
<path d="M6670 3675 c5 -317 6 -332 28 -375 35 -71 78 -116 137 -145 102 -50
231 -31 320 47 96 84 105 127 105 503 l0 300 -94 1 -94 1 -4 -291 c-4 -310 -8
-336 -57 -385 -29 -29 -81 -28 -109 2 -39 42 -42 68 -42 375 l0 297 -98 0 -97
0 5 -330z"/>
<path d="M4283 3980 c-64 -13 -113 -43 -171 -104 -155 -164 -160 -407 -11
-570 88 -97 194 -133 364 -124 l95 5 -2 -31 c-3 -58 2 -86 15 -86 6 0 43 25
80 55 38 30 79 58 93 61 24 6 25 8 22 97 -3 88 -4 91 -28 97 -15 4 -20 9 -13
13 6 4 14 49 18 101 13 177 -22 283 -128 383 -63 60 -92 76 -174 97 -66 17
-95 18 -160 6z m150 -214 c39 -16 82 -61 96 -99 6 -16 11 -91 11 -168 l0 -139
-82 0 c-46 0 -100 5 -121 11 -52 14 -112 71 -133 124 -40 105 33 250 139 275
47 12 55 11 90 -4z"/>
<path d="M5158 3951 c-67 -42 -98 -101 -101 -187 -3 -93 30 -160 115 -239 35
-31 75 -69 91 -83 40 -38 32 -113 -14 -125 -31 -8 -86 19 -93 46 -4 19 -13 22
-62 25 l-57 3 6 -54 c13 -129 111 -227 227 -227 122 0 221 112 224 254 1 78
-21 118 -142 247 -49 53 -93 107 -97 119 -18 57 88 89 139 41 21 -19 31 -22
65 -16 23 4 43 10 46 15 11 17 -29 102 -67 140 -51 53 -92 70 -171 70 -53 0
-71 -5 -109 -29z"/>
<path d="M3658 2882 c-34 -4 -68 -45 -68 -82 0 -33 38 -76 85 -96 36 -15 48
-47 21 -57 -17 -7 -26 1 -26 24 0 25 -15 32 -51 24 -29 -7 -31 -9 -25 -44 10
-68 89 -112 146 -81 26 14 60 73 60 104 0 42 -18 66 -65 86 -47 20 -62 37 -47
52 6 6 15 2 25 -12 18 -26 80 -25 85 1 8 44 -72 89 -140 81z"/>
<path d="M6130 2879 c-70 -15 -93 -90 -44 -148 15 -18 35 -31 49 -31 32 0 51
-25 35 -45 -17 -20 -24 -19 -35 8 -12 27 -62 36 -71 12 -4 -8 -1 -29 6 -46 37
-87 142 -93 185 -9 32 62 5 120 -66 141 -28 9 -39 18 -39 31 0 19 1 19 29 -1
34 -25 69 -27 77 -6 7 16 -13 72 -28 81 -22 14 -66 20 -98 13z"/>
<path d="M4301 2855 c-86 -73 -58 -248 46 -292 67 -28 135 13 168 101 26 68
14 130 -35 178 -34 35 -42 38 -93 38 -45 0 -61 -5 -86 -25z m118 -81 c26 -34
27 -68 1 -94 -24 -24 -43 -25 -64 -4 -19 18 -20 49 -5 93 14 39 40 41 68 5z"/>
<path d="M5090 2715 l0 -160 50 0 50 0 0 162 0 162 -50 -2 -50 -2 0 -160z"/>
<path d="M5396 2846 c-8 -17 -37 -84 -65 -149 -28 -65 -51 -123 -51 -128 0 -5
22 -9 49 -9 47 0 50 2 53 28 3 25 7 27 51 30 46 3 47 2 53 -27 6 -30 8 -31 59
-31 30 0 62 -3 72 -7 15 -5 16 -4 6 8 -6 8 -41 82 -77 164 l-65 150 -36 1
c-31 1 -38 -3 -49 -30z m50 -145 c-12 -19 -24 -12 -19 10 4 13 9 17 15 11 6
-6 7 -15 4 -21z"/>
<path d="M5743 2873 l-43 -4 0 -139 c0 -76 -3 -145 -6 -154 -5 -13 2 -16 44
-16 l50 0 -6 45 c-2 25 -2 45 0 45 3 0 19 -22 36 -49 30 -49 31 -50 81 -49
l50 0 -18 36 c-32 65 -34 80 -12 108 24 30 28 88 9 129 -22 49 -61 59 -185 48z
m85 -106 c2 -19 -1 -27 -12 -27 -17 0 -31 34 -21 50 11 18 30 5 33 -23z"/>
<path d="M3891 2716 l-1 -154 45 -4 45 -3 0 37 c0 43 5 48 43 41 23 -5 27 -10
27 -39 0 -33 1 -34 43 -34 l43 0 -1 155 0 155 -39 0 c-25 0 -43 -6 -51 -16
-11 -16 -14 -16 -45 0 -18 9 -50 16 -71 16 l-37 0 -1 -154z m159 29 c0 -45 0
-45 -35 -45 -34 0 -35 1 -35 39 0 36 3 40 28 44 15 2 30 5 35 6 4 0 7 -19 7
-44z"/>
<path d="M4648 2716 l3 -154 40 -4 c22 -2 42 -2 45 1 2 2 4 33 4 69 0 56 2 63
17 58 9 -4 30 -2 48 4 55 18 71 88 35 148 l-20 32 -87 0 -88 0 3 -154z m132
75 c0 -5 -7 -14 -15 -21 -12 -10 -18 -10 -30 0 -8 7 -12 16 -9 21 7 12 54 12
54 0z"/>
<path d="M27 103 c-25 -4 -27 -8 -27 -54 0 -48 1 -49 30 -49 30 0 30 1 30 55
0 30 -1 54 -2 54 -2 -1 -15 -4 -31 -6z"/>
</g>
</svg>
