<?xml version="1.0" encoding="utf-8"?>
<!-- Svg Vector Icons : http://www.onlinewebfonts.com/icon -->
<!DOCTYPE svg PUBLIC "-//W3C//DTD SVG 1.1//EN" "http://www.w3.org/Graphics/SVG/1.1/DTD/svg11.dtd">
<svg version="1.1" xmlns="http://www.w3.org/2000/svg" xmlns:xlink="http://www.w3.org/1999/xlink" x="0px" y="0px" viewBox="0 0 1000 1000" enable-background="new 0 0 1000 1000" xml:space="preserve">
<metadata> Svg Vector Icons : http://www.onlinewebfonts.com/icon </metadata>
<g><g transform="translate(0.000000,511.000000) scale(0.100000,-0.100000)"><path d="M463.6,3670.6c-38.3-19.1-80.4-61.2-99.5-99.5c-32.5-63.1-34.4-214.3-34.4-2340.2c0-2066.5,3.8-2280.8,30.6-2340.1c53.6-112.9,107.2-128.2,463.1-126.3c348.3,3.8,304.2-9.6,558.7,164.6c411.4,279.4,979.7,338.7,1450.4,151.2c67-26.8,187.5-93.8,266-147.3c80.4-53.6,170.3-112.9,200.9-133.9c53.6-34.4,112.9-36.3,1218.9-34.4c853.4,0,1174.9,5.7,1205.5,23c22.9,11.5,59.3,49.7,78.4,82.3c36.4,59.3,38.3,116.7,38.3,2353.5c0,2531.5,7.7,2365-120.5,2443.5c-59.3,38.3-116.7,38.3-2625.3,38.3C691.3,3705,526.7,3703.1,463.6,3670.6z M1695.8,2048c34.4-32.5,42.1-208.6,11.5-256.4c-13.4-21-68.9-30.6-214.3-38.3l-197.1-9.6v-153.1v-153.1l162.6-5.7c88-3.8,172.2-15.3,185.6-26.8c19.1-15.3,24.9-59.3,21-147.3l-5.7-126.3l-166.5-5.7c-105.2-3.8-172.2-13.4-185.6-30.6c-11.5-13.4-23-141.6-24.9-300.4l-5.7-275.5H1095H913.2l-5.7,753.9c-1.9,539.6,1.9,761.6,17.2,778.8C959.1,2093.9,1655.6,2090.1,1695.8,2048z M2593.2,2021.2c243-74.6,354-239.2,332.9-493.7c-11.5-141.6-74.6-252.6-164.6-290.8c-32.5-13.4-59.3-36.4-59.3-53.6c0-15.3,86.1-164.6,191.3-329.1S3085,544,3085,530.6c0-15.3-53.6-21-195.2-17.2l-197.1,5.7l-166.5,277.5c-91.8,153.1-168.4,283.2-172.2,290.8c-3.8,5.7-19.1,15.3-34.4,19.1c-24.9,3.8-30.6-40.2-38.3-290.8l-9.6-296.6h-162.6h-162.6l-5.7,753.9c-3.8,581.7,1.9,759.6,19.1,782.6C1996.2,2097.7,2417.2,2074.8,2593.2,2021.2z M4020.7,2051.8c13.4-17.2,21-76.5,17.2-149.3l-5.7-120.5l-220-19.1l-220-19.1l-5.7-93.8c-11.5-181.8-9.6-183.7,195.2-183.7c216.2,0,225.8-7.7,218.1-176l-5.7-120.5l-181.8-9.6c-99.5-5.7-193.3-17.2-204.7-24.9c-24.9-15.3-34.4-195.2-13.4-250.7c9.6-24.9,45.9-30.6,208.6-30.6c145.4,0,202.8-7.7,218.1-26.8c13.4-17.2,21-80.4,17.2-168.4l-5.7-139.7h-392.3h-392.3l-5.7,755.8c-3.8,692.7-1.9,757.7,28.7,780.7C3320.3,2092,3990,2088.2,4020.7,2051.8z M5090.3,2055.6c30.6-30.6,30.6-256.4,0-277.5c-13.4-7.7-114.8-19.1-225.8-24.9l-200.9-9.6l-5.7-93.8c-11.5-181.8-9.6-183.7,195.2-183.7c216.2,0,225.8-7.7,218.1-176l-5.7-120.5l-179.9-5.7c-99.5-1.9-193.3-15.3-206.7-26.8c-24.9-21-34.4-197.1-13.4-252.6c9.6-24.9,47.8-30.6,227.7-30.6c162.6,0,220-5.7,237.3-26.8c13.4-17.2,21-80.4,17.2-168.4l-5.7-139.7h-411.4h-411.4l-5.7,753.9c-1.9,539.6,1.9,761.6,17.2,778.8C4359.4,2088.2,5055.8,2090.1,5090.3,2055.6z"/><path d="M2304.3,1749.5c-13.4-13.4-23-84.2-23-181.8c0-174.1,19.1-202.8,118.6-183.7c91.8,17.2,149.2,88,149.2,185.6c0,112.9-13.4,141.6-78.5,174.1C2405.7,1778.2,2334.9,1780.1,2304.3,1749.5z"/><path d="M6399.1,2564.6c-103.3-72.7-99.5,1.9-99.5-1882.8c0-1884.8-3.8-1810.1,99.5-1882.8c24.9-17.2,82.3-30.6,132-30.6c76.5,0,107.2,13.4,220,97.6c155,112.9,390.4,231.5,553,275.5c63.1,17.2,214.3,36.4,336.8,42.1c361.6,17.2,646.8-59.3,929.9-250.7c80.4-53.6,168.4-112.9,195.2-130.1c44-30.6,103.3-34.4,505.1-34.4c501.3,0,541.5,7.7,597,114.8c42.1,80.4,42.1,1238,1.9,1318.4c-51.6,97.6-97.6,112.9-501.3,155c-415.2,42.1-470.7,59.3-530,172.2c-34.5,65.1-302.3,1599.6-283.2,1618.8c3.8,3.8,128.2,7.7,273.6,7.7H9097l55.5,55.5c47.8,47.8,55.5,70.8,55.5,158.8c0,107.1-30.6,164.5-109.1,204.7c-28.7,15.3-422.9,21.1-1349,21.1C6596.2,2595.2,6437.4,2591.4,6399.1,2564.6z M8086.8,2137.9c21-32.5,262.1-1484.8,256.4-1540.3c-3.8-32.5-24.9-70.8-53.6-91.9c-49.7-36.4-59.3-34.4-774.9,38.3c-683.1,70.8-727.1,76.5-759.6,118.6c-32.5,40.2-34.4,93.8-34.4,767.3v725.2h677.4C7774.8,2155.1,8081,2147.5,8086.8,2137.9z"/><path d="M2088.1-1271.9c-447.7-67-815.1-396.1-926.1-830.4c-38.3-147.3-36.4-403.7,1.9-553c116.7-455.4,531.9-792.1,1021.8-826.6c537.7-40.2,1046.7,350.2,1159.6,891.7c89.9,430.5-116.7,912.7-493.7,1155.7C2641.1-1300.6,2331.1-1233.6,2088.1-1271.9z M2424.8-1968.4c269.8-109.1,348.3-491.8,147.3-704.2c-212.4-225.8-581.7-170.3-719.5,105.2c-82.3,164.6-59.3,344.4,59.3,476.4C2051.7-1935.8,2237.3-1891.8,2424.8-1968.4z"/><path d="M7551-1270c-438.2-67-790.3-378.9-918.5-813.2c-76.5-254.5-32.5-606.6,105.2-841.9c233.4-403.7,750.1-635.3,1203.6-537.7c222,45.9,375,132,549.2,308.1c241.1,239.2,334.9,457.3,334.9,774.9c0,89.9-13.4,212.4-28.7,273.6c-97.6,377-421,711.8-776.9,803.7C7880.1-1266.1,7669.6-1250.8,7551-1270z M7905-1976c313.8-160.7,331-591.2,32.5-776.9c-82.3-49.7-112.9-57.4-220.1-55.5c-266,1.9-442,178-442,438.2c0,177.9,82.3,315.7,235.4,390.4C7618-1926.3,7803.6-1924.4,7905-1976z"/><path d="M199.5-1702.4c-86.1-59.3-99.5-118.6-99.5-438.2c0-331,15.3-388.4,114.8-440.1c70.8-36.4,407.6-40.2,434.4-3.8c11.5,11.5,24.9,130.1,30.6,262.1c7.7,179.9,23,283.2,61.2,417.1c70.8,237.3,74.6,233.5-246.8,233.5C297.1-1671.8,233.9-1677.5,199.5-1702.4z"/><path d="M3718.3-1708.1c-15.3-26.8-11.5-59.3,9.6-120.5c53.6-151.2,84.2-340.6,84.2-524.3c0-101.4,9.6-199,19.1-220c19.1-34.5,53.6-36.4,1146.2-36.4c878.3,0,1130.8,5.7,1146.2,23c9.6,13.4,23,141.6,28.7,283.2c5.7,191.3,19.1,292.8,49.8,388.4c22.9,72.7,40.2,153.1,36.3,181.8l-5.7,51.7l-1247.6,5.7C3771.9-1671.8,3735.6-1671.8,3718.3-1708.1z"/><path d="M9188.9-1700.5c-19.1-24.9-17.2-55.5,15.3-168.4c59.3-200.9,80.4-344.4,80.4-530c0-103.3,9.6-174.1,23-187.5c34.4-34.4,367.4-30.6,436.3,5.7c99.5,51.7,114.8,109.1,114.8,440.1c0,449.7-15.3,468.8-394.2,468.8C9261.6-1671.8,9208-1677.5,9188.9-1700.5z"/></g></g>
</svg>